:SAMPLES-PER-SECOND 30
:FULLY-SPECIFIED
:DEGREES
217
root  -6.72122 37.0782 12.2664 -176.954 69.6116 -175.731
RightUpLeg  -27.8719 0.0972354 -5.21654
RightLeg  26.4138 -0.760823 -0.635973
RightFoot  2.70426 -1.77937 14.5239
RightToes  -1.39699e-009 0 -3.6325e-017
Spine  15.7791 -1.40196 -13.431
Spine1  24.8994 -4.56882 1.62849
HEad  -33.7441 47.2765 -21.7439
LeftShoulder1  1.94945 -5.45617 -14.9144
LeftArm  -8.48786 -20.9661 -59.5271
LeftForeArm  -11.869 -73.1186 -45.7615
LeftHand  -0.731818 2.02109 25.0177
RightShoulder  0.551837 -0.464311 11.0452
RightArm  3.73231 -7.54619 62.278
RightForeArm  139.007 71.8105 145.989
RightHand  -0.919904 3.69732 -11.9692
LeftUpLeg  -6.83651 1.94523 8.2055
LeftLeg  38.282 6.19341 5.60289
LeftFoot  -26.6798 -1.9582 -15.6455
LeftToes  3.40148e-010 1.80944e-010 1.01921e-010
218
root  -6.73093 37.0543 12.308 -176.588 69.6726 -175.114
RightUpLeg  -27.7226 0.214639 -4.94656
RightLeg  26.4958 -0.811048 -0.664744
RightFoot  2.51113 -1.78732 14.7806
RightToes  -1.39699e-009 0 -3.6325e-017
Spine  16.1192 -1.46509 -13.2801
Spine1  24.8211 -4.59157 1.45313
HEad  -33.9233 47.5201 -21.8212
LeftShoulder1  1.93062 -5.39403 -14.8493
LeftArm  -8.66712 -21.0525 -59.4431
LeftForeArm  -11.9451 -73.1374 -45.8469
LeftHand  -0.682884 2.22623 24.8547
RightShoulder  0.53884 -0.52164 10.9505
RightArm  3.71191 -7.49822 62.4511
RightForeArm  138.95 71.7363 146.122
RightHand  -0.857535 3.48055 -11.4413
LeftUpLeg  -6.72599 1.75872 8.46201
LeftLeg  38.5214 6.30575 5.74284
LeftFoot  -26.8168 -1.99727 -15.7957
LeftToes  3.40148e-010 1.80944e-010 1.01921e-010
219
root  -6.74467 37.0267 12.3498 -176.583 69.8022 -175.255
RightUpLeg  -28.04 0.329596 -4.98386
RightLeg  26.7133 -0.817107 -0.672455
RightFoot  2.18768 -1.81684 15.3604
RightToes  -1.39699e-009 0 -3.6325e-017
Spine  16.0677 -1.51408 -13.3366
Spine1  24.7325 -4.54356 1.19853
HEad  -34.1397 47.6078 -21.666
LeftShoulder1  1.93015 -5.4739 -14.6319
LeftArm  -8.79226 -21.0648 -59.3893
LeftForeArm  -12.1587 -73.1447 -45.9013
LeftHand  -0.623524 2.50577 24.881
RightShoulder  0.526207 -0.59649 10.9849
RightArm  3.70825 -7.54697 62.4921
RightForeArm  138.675 71.553 146.428
RightHand  -0.829752 3.14742 -11.4898
LeftUpLeg  -6.93114 1.582 8.37115
LeftLeg  38.6513 6.56245 5.9847
LeftFoot  -26.9418 -2.02888 -15.9013
LeftToes  3.40148e-010 1.80944e-010 1.01921e-010
220
root  -6.75842 37.0032 12.386 -176.634 69.8901 -175.621
RightUpLeg  -28.509 0.275567 -5.10526
RightLeg  26.9241 -0.76078 -0.645865
RightFoot  1.8204 -1.8562 16.1008
RightToes  -1.39699e-009 0 -3.6325e-017
Spine  15.8698 -1.55899 -13.5361
Spine1  24.6523 -4.58261 1.1632
HEad  -34.4587 47.6427 -21.6396
LeftShoulder1  1.93014 -5.51462 -14.5254
LeftArm  -8.78846 -21.0915 -59.3933
LeftForeArm  -12.5584 -73.0639 -45.6198
LeftHand  -0.630935 2.50353 25.151
RightShoulder  0.521741 -0.61774 10.992
RightArm  3.73103 -7.61623 62.4256
RightForeArm  138.64 71.4634 146.59
RightHand  -0.864075 3.14934 -11.9485
LeftUpLeg  -7.28639 1.48836 8.20941
LeftLeg  38.7116 6.74134 6.14798
LeftFoot  -27.055 -2.0458 -15.9122
LeftToes  3.40148e-010 1.80944e-010 1.01921e-010
221
root  -6.76677 36.9934 12.4142 -176.443 69.8911 -175.536
RightUpLeg  -28.6623 0.121848 -5.05203
RightLeg  26.9718 -0.735476 -0.632846
RightFoot  1.51028 -1.88871 16.7519
RightToes  -1.39699e-009 0 -3.6325e-017
Spine  15.9399 -1.59155 -13.5915
Spine1  24.4939 -4.69025 1.29751
HEad  -34.705 47.6956 -21.7641
LeftShoulder1  1.94503 -5.57098 -14.5596
LeftArm  -8.72847 -21.0521 -59.3674
LeftForeArm  -12.8288 -72.9125 -45.0507
LeftHand  -0.691785 2.25282 25.385
RightShoulder  0.518132 -0.612654 10.949
RightArm  3.72694 -7.70227 62.3065
RightForeArm  139.049 71.5273 146.532
RightHand  -0.899959 3.52048 -11.9419
LeftUpLeg  -7.4503 1.51245 8.28641
LeftLeg  38.7476 6.69502 6.11625
LeftFoot  -27.1389 -2.05422 -15.8908
LeftToes  3.40148e-010 1.80944e-010 1.01921e-010
222
root  -6.76724 36.9935 12.4328 -176.241 69.9784 -175.237
RightUpLeg  -28.564 0.0848026 -4.91863
RightLeg  26.926 -0.72596 -0.626708
RightFoot  1.28272 -1.90875 17.216
RightToes  -1.39699e-009 0 -3.6325e-017
Spine  16.1467 -1.58128 -13.4658
Spine1  24.3396 -4.69775 1.32721
HEad  -34.7984 47.733 -21.8764
LeftShoulder1  1.98091 -5.75867 -14.5091
LeftArm  -8.73895 -20.8667 -59.2992
LeftForeArm  -13.2688 -72.6789 -44.2074
LeftHand  -0.743614 2.03194 25.4968
RightShoulder  0.515482 -0.631849 10.9352
RightArm  3.66597 -7.7814 62.2218
RightForeArm  139.447 71.6426 146.376
RightHand  -0.899811 3.82807 -11.5581
LeftUpLeg  -7.35237 1.6892 8.46791
LeftLeg  38.743 6.56295 6.00387
LeftFoot  -27.1802 -2.06265 -15.9106
LeftToes  3.40148e-010 1.80944e-010 1.01921e-010
223
root  -6.76015 36.992 12.4421 -176.302 70.2641 -175.251
RightUpLeg  -28.5608 0.188918 -4.89607
RightLeg  26.9401 -0.61776 -0.567072
RightFoot  1.09573 -1.91829 17.5476
RightToes  -1.39699e-009 0 -3.6325e-017
Spine  16.1284 -1.5252 -13.4078
Spine1  24.3318 -4.60008 1.27111
HEad  -34.8425 47.6814 -21.9551
LeftShoulder1  2.00946 -5.94039 -14.3889
LeftArm  -8.77032 -20.6132 -59.2348
LeftForeArm  -14.6954 -72.2835 -42.9347
LeftHand  -0.77628 1.93508 25.864
RightShoulder  0.513956 -0.650826 10.8643
RightArm  3.5958 -7.78069 62.2871
RightForeArm  139.386 71.7271 146.207
RightHand  -0.895855 3.79822 -11.546
LeftUpLeg  -7.18903 1.98459 8.49284
LeftLeg  38.6811 6.52978 5.96366
LeftFoot  -27.2119 -2.07164 -15.9437
LeftToes  3.40148e-010 1.80944e-010 1.01921e-010
224
root  -6.7473 36.9844 12.4455 -176.494 70.613 -175.515
RightUpLeg  -28.717 0.276685 -4.95424
RightLeg  27.0456 -0.41369 -0.455511
RightFoot  0.902503 -1.9167 17.7959
RightToes  -1.39699e-009 0 -3.6325e-017
Spine  15.9582 -1.46671 -13.5257
Spine1  24.3479 -4.56119 1.35097
HEad  -34.8738 47.5526 -22.0372
LeftShoulder1  2.01581 -5.93893 -14.4669
LeftArm  -8.65908 -20.3498 -59.0887
LeftForeArm  -17.212 -71.6668 -41.1452
LeftHand  -0.809768 1.89744 26.6733
RightShoulder  0.514005 -0.630832 10.6213
RightArm  3.60288 -7.70897 62.4978
RightForeArm  139.043 71.7625 146.087
RightHand  -0.903316 3.61377 -11.8648
LeftUpLeg  -7.10117 2.27299 8.38963
LeftLeg  38.6123 6.59296 6.00331
LeftFoot  -27.2731 -2.07978 -15.9421
LeftToes  3.40148e-010 1.80944e-010 1.01921e-010
225
root  -6.73143 36.9737 12.445 -176.573 70.8929 -175.651
RightUpLeg  -28.8575 0.309206 -4.9686
RightLeg  27.1919 -0.237965 -0.359182
RightFoot  0.70532 -1.90312 17.9464
RightToes  -1.39699e-009 0 -3.6325e-017
Spine  15.9845 -1.45703 -13.6388
Spine1  24.1273 -4.62506 1.49574
HEad  -34.8665 47.4282 -22.0785
LeftShoulder1  2.01895 -5.84557 -14.7368
LeftArm  -8.39563 -19.9952 -58.7337
LeftForeArm  -20.1346 -70.8196 -38.9113
LeftHand  -0.828905 1.93013 27.5451
RightShoulder  0.514977 -0.596923 10.386
RightArm  3.73137 -7.65268 62.6481
RightForeArm  138.855 71.7303 146.12
RightHand  -0.897379 3.5416 -11.8794
LeftUpLeg  -7.04288 2.47489 8.32415
LeftLeg  38.6025 6.67405 6.06964
LeftFoot  -27.3583 -2.09198 -15.9461
LeftToes  3.40148e-010 1.80944e-010 1.01921e-010
